<svg width="129" height="48" viewBox="0 0 129 48" fill="none" xmlns="http://www.w3.org/2000/svg">
<path d="M0 41.0516L8.18813 30.7841H0.594134V29.2715H10.4025V30.775L2.17027 40.9894H10.4025V42.502H0V41.0516Z" fill="#3CBB96"/>
<path d="M20.1189 29.2715H22.1102C22.9093 31.4742 23.7084 33.6782 24.5101 35.8822C25.3118 38.0849 26.1122 40.2915 26.9099 42.502H25.0095L23.6682 38.522H18.3456C18.3275 38.57 18.2834 38.6933 18.2107 38.8956C18.1394 39.0967 18.0525 39.3367 17.9539 39.6169C17.8553 39.8958 17.7489 40.1955 17.6347 40.512C17.5206 40.8311 17.4142 41.1295 17.3143 41.4084C17.2157 41.6873 17.1301 41.9286 17.0575 42.1283C16.9861 42.3307 16.9407 42.4553 16.9226 42.5033H15.1479L20.1189 29.2715ZM23.1181 37.1249C23.0883 37.0302 23.0377 36.8811 22.9651 36.6787C22.8924 36.4776 22.8094 36.2389 22.7173 35.9639C22.6239 35.6876 22.5201 35.3879 22.406 35.0675C22.2918 34.7458 22.1776 34.4189 22.0635 34.0868C21.9493 33.7534 21.8378 33.4265 21.7262 33.1048C21.6146 32.7831 21.5148 32.4873 21.424 32.2175C21.3344 31.9464 21.254 31.7129 21.1853 31.5144C21.1165 31.3159 21.0659 31.1745 21.0361 31.0915C21.0011 31.1875 20.944 31.338 20.87 31.5416C20.7948 31.7453 20.7066 31.9853 20.6041 32.2629C20.5016 32.5392 20.3914 32.8402 20.2707 33.1645C20.1501 33.4888 20.0294 33.8157 19.9062 34.1452C19.783 34.476 19.6636 34.8016 19.5456 35.1233C19.4288 35.445 19.3224 35.7395 19.2264 36.0106C19.1305 36.2804 19.0461 36.5139 18.9748 36.7098C18.9034 36.9044 18.8515 37.0432 18.8217 37.1275H23.1181V37.1249Z" fill="#3CBB96"/>
<path d="M36.4353 29.2715H38.4266C39.2257 31.4742 40.0248 33.6782 40.8265 35.8822C41.6282 38.0849 42.4286 40.2915 43.2264 42.502H41.3259L39.9846 38.522H34.662C34.6439 38.57 34.5998 38.6933 34.5271 38.8956C34.4545 39.098 34.3689 39.3367 34.2703 39.6169C34.1717 39.8958 34.0653 40.1955 33.9511 40.512C33.837 40.8311 33.7306 41.1295 33.6307 41.4084C33.5321 41.6873 33.4465 41.9286 33.3739 42.1283C33.3025 42.3307 33.2571 42.4553 33.239 42.5033H31.4644L36.4353 29.2715ZM39.4345 37.1249C39.4047 37.0302 39.3541 36.8811 39.2815 36.6787C39.2088 36.4776 39.1258 36.2389 39.0337 35.9639C38.9403 35.6876 38.8365 35.3879 38.7224 35.0675C38.6082 34.7458 38.4941 34.4189 38.3799 34.0868C38.2657 33.7534 38.1542 33.4265 38.0426 33.1048C37.9311 32.7831 37.8312 32.4873 37.7404 32.2175C37.6509 31.9464 37.5704 31.7129 37.5017 31.5144C37.4329 31.3159 37.3823 31.1745 37.3525 31.0915C37.3175 31.1875 37.2604 31.338 37.1864 31.5416C37.1112 31.7453 37.023 31.9853 36.9205 32.2629C36.818 32.5392 36.7078 32.8402 36.5871 33.1645C36.4665 33.4888 36.3458 33.8157 36.2226 34.1452C36.0994 34.476 35.98 34.8016 35.862 35.1233C35.7452 35.445 35.6388 35.7395 35.5429 36.0106C35.4469 36.2804 35.3625 36.5139 35.2912 36.7098C35.2198 36.9044 35.168 37.0432 35.1381 37.1275H39.4345V37.1249Z" fill="#3CBB96"/>
<path d="M49.0679 29.2715H58.6959V30.8295H50.7517V34.9365H58.0927V36.405H50.7517V40.9894H58.8308V42.502H49.0679V29.2715Z" fill="#3CBB96"/>
<path d="M65.4297 29.2715H71.5461C73.0055 29.2715 74.0952 29.5763 74.8152 30.1847C75.5364 30.7944 75.8958 31.6701 75.8958 32.8103C75.8958 33.5965 75.7284 34.2477 75.3911 34.7614C75.0552 35.2738 74.5804 35.6902 73.9681 36.0093C74.2327 36.117 74.4636 36.2402 74.6621 36.3777C74.8606 36.5165 75.0279 36.6826 75.1667 36.8785C75.3055 37.0743 75.4132 37.304 75.491 37.5712C75.5688 37.8397 75.6169 38.1523 75.635 38.513L75.6973 40.2876C75.709 40.6002 75.7297 40.8674 75.7595 41.0893C75.7894 41.3111 75.8335 41.5005 75.8906 41.6562C75.9476 41.8131 76.019 41.939 76.102 42.035C76.1863 42.1309 76.2849 42.2049 76.3991 42.2594V42.502H74.2638C74.2275 42.4293 74.1977 42.3567 74.1743 42.2814C74.1497 42.2062 74.1289 42.118 74.1121 42.0155C74.0939 41.913 74.0783 41.7833 74.0667 41.6289C74.055 41.472 74.0433 41.2774 74.0316 41.0439L73.924 38.8282C73.8993 38.4624 73.8383 38.1497 73.7397 37.8903C73.6412 37.6334 73.4907 37.422 73.2896 37.2598C73.0885 37.0977 72.8252 36.9809 72.5022 36.9096C72.1779 36.8369 71.7757 36.8006 71.2945 36.8006H67.1602V42.502H65.431V29.2715H65.4297ZM71.3567 35.3607C71.7822 35.3607 72.1675 35.3218 72.51 35.2439C72.8511 35.1661 73.1456 35.0364 73.3882 34.8509C73.6308 34.668 73.8189 34.4254 73.9512 34.1218C74.0822 33.8183 74.1484 33.4434 74.1484 32.9919C74.1484 32.2292 73.9434 31.6649 73.5309 31.2991C73.1197 30.9332 72.475 30.7503 71.598 30.7503H67.1576V35.362H71.3567V35.3607Z" fill="#3CBB96"/>
<path d="M11.8669 16.9918V19.3605L11.4622 19.7938H9.03505C8.88068 21.4128 8.15423 22.7217 6.85311 23.7231C5.55198 24.7246 3.82406 25.3421 1.66677 25.573L1.6084 22.3649C3.0146 22.2106 4.07962 21.8642 4.80218 21.3246C5.52474 20.7849 5.88537 20.0623 5.88537 19.1582V8.03311H9.06359V16.6143H11.5192L11.8669 16.9918Z" fill="#1C226F"/>
<path d="M11.3168 19.7954L10.7681 19.5645V16.8196L11.3168 16.6172H18.8874L19.4362 16.935V19.4776L18.8874 19.7954H11.3168Z" fill="#1C226F"/>
<path d="M18.8876 19.7954L18.3389 19.5645V16.8196L18.8876 16.6172H26.4582L27.007 16.935V19.4776L26.4582 19.7954H18.8876Z" fill="#1C226F"/>
<path d="M26.4579 19.7954L25.9092 19.5645V16.8196L26.4579 16.6172H34.0286L34.5773 16.935V19.4776L34.0286 19.7954H26.4579Z" fill="#1C226F"/>
<path d="M34.0287 19.7954L33.48 19.5645V16.8196L34.0287 16.6172H41.5994L42.1481 16.935V19.4776L41.5994 19.7954H34.0287Z" fill="#1C226F"/>
<path d="M41.5995 19.7954L41.0508 19.5645V16.8196L41.5995 16.6172H49.1702L49.7189 16.935V19.4776L49.1702 19.7954H41.5995Z" fill="#1C226F"/>
<path d="M49.1698 19.7954L48.6211 19.5645V16.8196L49.1698 16.6172H56.7405L57.2892 16.935V19.4776L56.7405 19.7954H49.1698Z" fill="#1C226F"/>
<path d="M56.1919 19.3612V16.9924L56.7406 16.6162H59.8618V8.03506H62.8376V18.9863C62.8376 19.2172 62.7611 19.4092 62.6067 19.5636C62.4523 19.7179 62.2603 19.7945 62.0281 19.7945H56.7406L56.1919 19.3612ZM63.9065 3.67116V5.34719H57.4917V3.67116H58.907C58.8305 3.38188 58.7915 3.08352 58.7915 2.77478C58.7915 1.88877 59.1574 1.20513 59.889 0.722555C60.6206 0.241282 61.421 0 62.2876 0H63.0101V1.67602H62.2876C61.7479 1.67602 61.2952 1.79667 60.9294 2.03795C60.5636 2.27924 60.3806 2.60095 60.3806 3.00568C60.3806 3.21843 60.439 3.43896 60.5545 3.66987H63.9065V3.67116Z" fill="#1C226F"/>
<path d="M65.959 2.57422H69.1372V19.7963H65.959V2.57422Z" fill="#1C226F"/>
<path d="M76.0136 19.1579C76.0136 20.9299 75.3585 22.3802 74.0483 23.5062C72.7381 24.6335 70.9272 25.3224 68.6155 25.5727L68.5571 22.3647C69.9633 22.2103 71.0284 21.8639 71.7509 21.3243C72.4735 20.7846 72.8341 20.0621 72.8341 19.1579V8.03285H76.0123V19.1579H76.0136ZM73.3271 4.88317C73.0183 4.57573 72.8652 4.19953 72.8652 3.75588C72.8652 3.31352 73.0196 2.94252 73.3271 2.64415C73.6345 2.34579 74.0107 2.19531 74.4543 2.19531C74.8967 2.19531 75.2677 2.34579 75.5674 2.64415C75.8657 2.94381 76.0149 3.31352 76.0149 3.75588C76.0149 4.19953 75.8657 4.57573 75.5674 4.88317C75.269 5.19191 74.898 5.34499 74.4543 5.34499C74.0107 5.34499 73.6345 5.19191 73.3271 4.88317Z" fill="#1C226F"/>
<path d="M97.6121 19.4707C97.6121 12.9811 102.211 7.68076 108.842 7.68076C115.473 7.68076 120.179 13.0894 120.179 19.5789H128.79V19.4707C128.79 8.70757 120.5 0 108.949 0C97.398 0 89 8.81584 89 19.5789H97.6103V19.4707H97.6121Z" fill="#1C226F"/>
<path d="M125.631 30.3179L114.851 42.0286L109.342 48L109.319 47.9522L109.296 48L101 39.006L105.027 34.3353L106.61 36.0533L109.319 38.988L112.027 36.0515L117.295 30.3158L125.631 30.3179Z" fill="#3CBB96"/>
<path d="M97.8276 36.6317L102.263 31.7512L97.9577 27.158H96.1848H89" fill="#F591A0"/>
<path fill-rule="evenodd" clip-rule="evenodd" d="M116.49 20.8948C116.49 25.255 113.097 28.7895 108.911 28.7895C104.725 28.7895 101.332 25.255 101.332 20.8948C101.332 16.5346 104.725 13 108.911 13C113.097 13 116.49 16.5346 116.49 20.8948ZM112.618 22.9566L113.632 20.9172L113.548 20.7544C112.617 20.9191 111.252 21.0839 110.069 21.0839C109.075 21.0839 108.063 20.7127 107.4 20.2601C106.884 19.9098 106.614 19.4364 106.614 18.963C106.614 18.715 106.863 18.448 107.194 18.2416C107.586 17.9727 108.354 17.664 108.974 17.664C109.471 17.664 109.803 17.8288 110.071 18.1582C110.281 18.4252 110.528 18.8986 110.673 19.3114H110.796C111.499 18.6506 111.748 18.0124 111.748 17.3951C111.748 16.4483 110.837 15.7893 109.738 15.7893C108.641 15.7893 107.192 16.3877 106.176 17.3345C105.536 17.931 104.79 18.9611 104.79 20.156C104.79 21.3906 105.761 22.1746 107.067 22.6271V22.7294C106.612 22.8941 106.239 23.2236 105.888 23.5531L104.955 25.0566L105.163 25.263C107.649 23.8012 110.237 23.2236 112.618 22.9566Z" fill="#1C226F"/>
<path d="M127.526 25.4621C127.526 26.0049 126.223 27.2018 123.618 29.0527C122.795 28.0783 122.227 27.4316 121.917 27.1114C121.04 26.1934 119.694 26.3423 119.316 26.3272L120.175 25.4828L124.102 21.4738C126.386 23.2003 127.526 24.5291 127.526 25.4621Z" fill="#F591A0"/>
</svg>
