<svg width="131" height="48" viewBox="0 0 131 48" fill="none" xmlns="http://www.w3.org/2000/svg">
<path d="M8.61206 19.4707C8.61206 12.9811 13.2108 7.68076 19.8422 7.68076C26.4732 7.68076 31.1792 13.0894 31.1792 19.5789H39.7895V19.4707C39.7895 8.70757 31.5002 0 19.9491 0C8.39796 0 0 8.81584 0 19.5789H8.61031V19.4707H8.61206Z" fill="#223A77"/>
<path d="M36.6316 30.3185L25.8511 42.0292L20.342 48.0006L20.3198 47.9529L20.296 48.0006L12 39.0066L16.0271 34.3359L17.6104 36.0539L20.3198 38.9887L23.0273 36.0521L28.2952 30.3164L36.6316 30.3185Z" fill="#3860C7"/>
<path d="M8.82758 36.6319L13.2632 31.7515L8.95767 27.1582H7.18483H0" fill="#223A77"/>
<path d="M19.911 28.7895C24.0967 28.7895 27.4899 25.255 27.4899 20.8948C27.4899 16.5346 24.0967 13 19.911 13C15.7252 13 12.332 16.5346 12.332 20.8948C12.332 25.255 15.7252 28.7895 19.911 28.7895Z" fill="#223A77"/>
<path d="M24.6312 20.9169L23.6181 22.9564C21.2363 23.2233 18.6488 23.8009 16.1623 25.2627L15.9547 25.0564L16.8877 23.5528C17.2381 23.2233 17.6111 22.8939 18.0661 22.7291V22.6268C16.7601 22.1743 15.7891 21.3903 15.7891 20.1557C15.7891 18.9608 16.5353 17.9307 17.1752 17.3343C18.192 16.3874 19.6408 15.7891 20.7374 15.7891C21.8361 15.7891 22.7479 16.4481 22.7479 17.3948C22.7479 18.0122 22.4985 18.6503 21.796 19.3112H21.6722C21.5278 18.8983 21.2801 18.425 21.0707 18.158C20.8024 17.8285 20.4709 17.6637 19.974 17.6637C19.3533 17.6637 18.5859 17.9724 18.1938 18.2413C17.8625 18.4477 17.6131 18.7147 17.6131 18.9627C17.6131 19.4361 17.8834 19.9095 18.3994 20.2599C19.0621 20.7124 20.075 21.0836 21.0689 21.0836C22.2511 21.0836 23.6163 20.9188 24.5473 20.7541L24.6312 20.9169Z" fill="white"/>
<path d="M38.5269 25.4629C38.5269 26.0057 37.2235 27.2026 34.6182 29.0536C33.7955 28.0792 33.227 27.4324 32.9179 27.1122C32.0403 26.1942 30.6949 26.3431 30.3164 26.328L31.1756 25.4837L35.1027 21.4746C37.3862 23.2011 38.5269 24.5299 38.5269 25.4629Z" fill="#223A77"/>
<path d="M46.6094 18.9531L55.5273 7.78516H46.832V4.72656H60.0273V7.62109L50.9922 18.9531H60.0508V22H46.6094V18.9531ZM67.7027 15.4727H72.0855L69.9292 8.67578L67.7027 15.4727ZM67.9253 4.72656H72.0034L78.1206 22H74.2066L73.0933 18.4492H66.73L65.5347 22H61.7612L67.9253 4.72656ZM85.5264 15.4727H89.9092L87.753 8.67578L85.5264 15.4727ZM85.7491 4.72656H89.8272L95.9444 22H92.0303L90.917 18.4492H84.5537L83.3584 22H79.585L85.7491 4.72656ZM111.401 7.78516H102.26V11.4531H110.651V14.4531H102.26V18.8945H111.823V22H98.733V4.72656H111.401V7.78516ZM118.725 7.72656V12.3672H122.815C123.627 12.3672 124.236 12.2734 124.643 12.0859C125.361 11.7578 125.721 11.1094 125.721 10.1406C125.721 9.09375 125.373 8.39062 124.678 8.03125C124.287 7.82813 123.701 7.72656 122.92 7.72656H118.725ZM123.67 4.72656C124.881 4.75 125.811 4.89844 126.459 5.17188C127.115 5.44531 127.67 5.84766 128.123 6.37891C128.498 6.81641 128.795 7.30078 129.014 7.83203C129.232 8.36328 129.342 8.96875 129.342 9.64844C129.342 10.4688 129.135 11.2773 128.721 12.0742C128.307 12.8633 127.623 13.4219 126.67 13.75C127.467 14.0703 128.029 14.5273 128.357 15.1211C128.693 15.707 128.861 16.6055 128.861 17.8164V18.9766C128.861 19.7656 128.893 20.3008 128.955 20.582C129.049 21.0273 129.268 21.3555 129.611 21.5664V22H125.639C125.529 21.6172 125.451 21.3086 125.404 21.0742C125.311 20.5898 125.26 20.0938 125.252 19.5859L125.229 17.9805C125.213 16.8789 125.01 16.1445 124.619 15.7773C124.236 15.4102 123.514 15.2266 122.451 15.2266H118.725V22H115.197V4.72656H123.67Z" fill="#223A77"/>
<path d="M47.709 30.6543H54.1641C55.4401 30.6543 56.4688 31.0156 57.25 31.7383C58.0312 32.4544 58.4219 33.4635 58.4219 34.7656C58.4219 35.8854 58.0736 36.862 57.377 37.6953C56.6803 38.5221 55.6094 38.9355 54.1641 38.9355H49.6523V45H47.709V30.6543ZM56.459 34.7754C56.459 33.7207 56.0684 33.0046 55.2871 32.627C54.8574 32.4251 54.2682 32.3242 53.5195 32.3242H49.6523V37.2949H53.5195C54.3919 37.2949 55.0983 37.1094 55.6387 36.7383C56.1855 36.3672 56.459 35.7129 56.459 34.7754ZM81.6145 30.6543H84.3977L88.5187 42.7832L92.6105 30.6543H95.3645V45H93.5187V36.5332C93.5187 36.2402 93.5253 35.7552 93.5383 35.0781C93.5513 34.401 93.5578 33.6751 93.5578 32.9004L89.466 45H87.5422L83.4211 32.9004V33.3398C83.4211 33.6914 83.4276 34.2285 83.4406 34.9512C83.4602 35.6673 83.4699 36.1947 83.4699 36.5332V45H81.6145V30.6543ZM120.393 40.3711C120.439 41.1849 120.631 41.8457 120.969 42.3535C121.614 43.304 122.75 43.7793 124.377 43.7793C125.107 43.7793 125.771 43.6751 126.37 43.4668C127.528 43.0632 128.108 42.3405 128.108 41.2988C128.108 40.5176 127.864 39.9609 127.375 39.6289C126.881 39.3034 126.106 39.0202 125.051 38.7793L123.108 38.3398C121.838 38.0534 120.94 37.7376 120.412 37.3926C119.501 36.7936 119.045 35.8984 119.045 34.707C119.045 33.418 119.491 32.36 120.383 31.5332C121.275 30.7064 122.538 30.293 124.172 30.293C125.676 30.293 126.952 30.6576 128 31.3867C129.055 32.1094 129.582 33.2682 129.582 34.8633H127.756C127.659 34.0951 127.45 33.5059 127.131 33.0957C126.539 32.347 125.533 31.9727 124.114 31.9727C122.968 31.9727 122.144 32.2135 121.643 32.6953C121.142 33.1771 120.891 33.737 120.891 34.375C120.891 35.0781 121.184 35.5924 121.77 35.918C122.154 36.1263 123.023 36.3867 124.377 36.6992L126.389 37.1582C127.359 37.3796 128.108 37.6823 128.635 38.0664C129.547 38.737 130.002 39.7103 130.002 40.9863C130.002 42.5749 129.423 43.7109 128.264 44.3945C127.112 45.0781 125.771 45.4199 124.241 45.4199C122.457 45.4199 121.06 44.9642 120.051 44.0527C119.042 43.1478 118.547 41.9206 118.567 40.3711H120.393Z" fill="#223A77"/>
</svg>
